<?xml version="1.0" standalone="no"?>
<!DOCTYPE svg PUBLIC "-//W3C//DTD SVG 20010904//EN"
 "http://www.w3.org/TR/2001/REC-SVG-20010904/DTD/svg10.dtd">
<svg version="1.0" xmlns="http://www.w3.org/2000/svg"
 width="174.000000pt" height="183.000000pt" viewBox="0 0 174.000000 183.000000"
 preserveAspectRatio="xMidYMid meet">

<g transform="translate(0.000000,183.000000) scale(0.100000,-0.100000)"
fill="#000000" stroke="none">
<path d="M1158 1738 c-8 -7 -57 -60 -108 -118 -152 -173 -171 -193 -175 -188
-3 2 -26 67 -53 144 -26 76 -51 145 -55 152 -5 6 -19 12 -32 12 -42 0 -40 -35
9 -180 25 -74 46 -138 46 -141 0 -4 -19 -10 -42 -14 -24 -4 -78 -20 -121 -36
-125 -46 -204 -35 -304 41 -29 22 -53 34 -53 27 0 -6 9 -40 19 -75 25 -83 35
-177 23 -227 -5 -22 -26 -94 -47 -160 -86 -281 -46 -527 117 -700 77 -83 120
-115 126 -94 3 7 24 33 46 56 49 48 114 71 240 82 197 18 326 -32 326 -127 0
-58 -37 -108 -124 -166 -37 -24 -37 -26 -13 -26 39 0 178 52 242 91 70 42 170
146 212 220 52 93 84 210 90 335 7 136 -7 240 -52 382 -24 72 -35 126 -35 167
0 53 25 182 46 240 7 20 7 20 -17 -1 -43 -36 -105 -72 -145 -83 -62 -17 -108
-13 -201 19 -47 17 -96 30 -109 30 -13 0 -26 4 -29 10 -3 5 48 71 114 145 67
75 121 144 121 153 0 36 -33 52 -62 30z m19 -573 c58 -17 106 -53 128 -95 64
-124 101 -481 58 -568 -11 -22 -33 -45 -54 -56 -34 -19 -41 -19 -125 -5 -120
19 -498 19 -617 0 -79 -13 -91 -13 -122 2 -19 9 -41 28 -51 41 -47 73 -27 380
37 552 34 92 98 131 234 145 125 12 451 2 512 -16z"/>
<path d="M680 1091 c-41 -4 -92 -15 -112 -25 -34 -17 -40 -25 -63 -97 -30 -95
-59 -315 -50 -379 10 -75 10 -75 117 -59 123 19 494 19 606 0 96 -16 107 -11
116 53 10 67 -20 295 -51 389 -28 82 -28 82 -76 100 -38 13 -89 18 -230 21
-100 3 -216 1 -257 -3z m73 -116 c12 -7 41 -24 63 -37 23 -13 80 -45 128 -71
47 -27 86 -53 86 -57 0 -5 -21 -21 -47 -36 -27 -15 -96 -55 -155 -90 -59 -34
-109 -59 -112 -56 -8 8 -7 347 1 355 9 9 11 9 36 -8z"/>
</g>
</svg>
